<svg width="32" height="32" viewBox="0 0 32 32" fill="none" xmlns="http://www.w3.org/2000/svg">
<path d="M14.2192 12.337C13.9751 12.12 13.6599 12.0001 13.3333 12.0001C12.9797 12.0001 12.6406 12.1406 12.3905 12.3906C12.1405 12.6407 12 12.9798 12 13.3334V21.3334L12.0093 21.4894C12.0495 21.8269 12.217 22.1363 12.4776 22.3544C12.7382 22.5725 13.0722 22.6829 13.4115 22.663C13.7507 22.6431 14.0696 22.4944 14.3029 22.2472C14.5362 22.0001 14.6663 21.6733 14.6667 21.3334V13.3334L14.6573 13.1774C14.6191 12.8531 14.4632 12.554 14.2192 12.337Z" fill="#E12828"/>
<path d="M19.6095 12.3906C19.3594 12.1406 19.0203 12.0001 18.6667 12.0001C18.313 12.0001 17.9739 12.1406 17.7239 12.3906C17.4738 12.6407 17.3333 12.9798 17.3333 13.3334V21.3334C17.3333 21.687 17.4738 22.0262 17.7239 22.2762C17.9739 22.5263 18.313 22.6667 18.6667 22.6667C19.0203 22.6667 19.3594 22.5263 19.6095 22.2762C19.8595 22.0262 20 21.687 20 21.3334V13.3334C20 12.9798 19.8595 12.6407 19.6095 12.3906Z" fill="#E12828"/>
<path fill-rule="evenodd" clip-rule="evenodd" d="M20.5991 3.17049C20.1451 2.84313 19.5997 2.66689 19.04 2.66675H12.9613C12.4014 2.66661 11.8557 2.84272 11.4015 3.1701C10.9472 3.49748 10.6076 3.95953 10.4307 4.49075L9.70667 6.66675H5.33333C4.97971 6.66675 4.64057 6.80722 4.39052 7.05727C4.14048 7.30732 4 7.64646 4 8.00008C4 8.3537 4.14048 8.69284 4.39052 8.94289C4.64057 9.19294 4.97971 9.33342 5.33333 9.33342L6.33476 24.3548C6.52153 27.1564 8.84848 29.3334 11.6563 29.3334H20.3437C23.1515 29.3334 25.4785 27.1564 25.6652 24.3548L26.6667 9.33342C27.0203 9.33342 27.3594 9.19294 27.6095 8.94289C27.8595 8.69284 28 8.3537 28 8.00008C28 7.64646 27.8595 7.30732 27.6095 7.05727C27.3594 6.80722 27.0203 6.66675 26.6667 6.66675H22.2933L21.5693 4.49075C21.3925 3.95975 21.053 3.49785 20.5991 3.17049ZM24 9.33341H8L8.99552 24.1775C9.08891 25.5783 10.2524 26.6667 11.6563 26.6667H20.3437C21.7476 26.6667 22.9111 25.5783 23.0045 24.1775L24 9.33341ZM12.96 5.33341H19.04L19.484 6.66675H12.516L12.96 5.33341Z" fill="#E12828"/>
</svg>
