<svg width="137" height="25" viewBox="0 0 137 25" fill="none" xmlns="http://www.w3.org/2000/svg">
<path fill-rule="evenodd" clip-rule="evenodd" d="M8 2C8 0.89543 8.89543 0 10 0H14C15.1046 0 16 0.895431 16 2V7V8V16V17V22C16 23.1046 15.1046 24 14 24H10C8.89543 24 8 23.1046 8 22V16H2C0.89543 16 0 15.1046 0 14V10C0 8.89543 0.895431 8 2 8L8 8V2ZM18 16H22C23.1046 16 24 15.1046 24 14V10C24 8.89543 23.1046 8 22 8L18 8V16Z" fill="#E12828"/>
<path d="M32.856 20L40.224 3.2H43.296L50.664 20H46.752L45.408 16.952H37.992L36.624 20H32.856ZM40.848 10.568L39.432 13.712H43.92L42.648 10.592C42.336 9.8 42.096 9.152 41.832 8.264H41.736C41.472 9.032 41.208 9.728 40.848 10.568ZM63.9713 20V6.8H56.2913V20H52.3313V3.2H67.9313V20H63.9713ZM69.8466 6.68V3.2H84.6786V6.68H79.2306V20H75.2706V6.68H69.8466ZM86.5969 20V3.2H99.8929V6.44H90.5569V9.92H99.2689V13.04H90.5569V16.76H100.109V20H86.5969ZM103.238 20V3.2H107.198V10.952L113.822 3.2H119.006L111.71 11.192L119.006 20H113.918L107.894 12.776L107.198 13.544V20H103.238ZM118.731 20L126.099 3.2H129.171L136.539 20H132.627L131.283 16.952H123.867L122.499 20H118.731ZM126.723 10.568L125.307 13.712H129.795L128.523 10.592C128.211 9.8 127.971 9.152 127.707 8.264H127.611C127.347 9.032 127.083 9.728 126.723 10.568Z" fill="#1A1A1A"/>
</svg>
