<svg width="32" height="32" viewBox="0 0 32 32" fill="none" xmlns="http://www.w3.org/2000/svg">
<path d="M12 6.66667C9.7909 6.66667 8.00004 8.45753 8.00004 10.6667V21.3333C8.00004 23.5425 9.7909 25.3333 12 25.3333H18.6667C19.4031 25.3333 20 25.9303 20 26.6667C20 27.403 19.4031 28 18.6667 28H12C8.31814 28 5.33337 25.0152 5.33337 21.3333V10.6667C5.33337 6.98477 8.31814 4 12 4H18.6667C19.4031 4 20 4.59695 20 5.33333C20 6.06971 19.4031 6.66667 18.6667 6.66667H12Z" fill="#E12828"/>
<path d="M11.5023 16C11.5023 16.7364 12.0993 17.3333 12.8357 17.3333H21.7498L20.1 19.0862C19.5953 19.6224 19.6209 20.4662 20.1571 20.9709C20.6934 21.4756 21.5372 21.4501 22.0419 20.9138L26.6667 16L22.0419 11.0862C21.5372 10.55 20.6934 10.5244 20.1571 11.0291C19.6209 11.5338 19.5953 12.3776 20.1 12.9138L21.7498 14.6667H12.8357C12.0993 14.6667 11.5023 15.2636 11.5023 16Z" fill="#E12828"/>
</svg>
